<svg id="Filled" height="512" viewBox="0 0 512 512" width="512" xmlns="http://www.w3.org/2000/svg"><rect fill="#6a7073" height="464" rx="32" width="384" x="64" y="24"/><path d="m96 56h320v368h-320z" fill="#e9eef2"/><path d="m192 168-32-24-32 24v-112h64z" fill="#eb423f"/><path d="m416 496a40.045 40.045 0 0 0 40-40v-400a40.045 40.045 0 0 0 -40-40h-320a40.045 40.045 0 0 0 -40 40v400a40.045 40.045 0 0 0 40 40zm-344-40v-400a24.028 24.028 0 0 1 24-24h320a24.028 24.028 0 0 1 24 24v400a24.028 24.028 0 0 1 -24 24h-320a24.028 24.028 0 0 1 -24-24z"/><path d="m416 432a8 8 0 0 0 8-8v-368a8 8 0 0 0 -8-8h-320a8 8 0 0 0 -8 8v368a8 8 0 0 0 8 8zm-280-368h48v88l-19.2-14.4a8 8 0 0 0 -9.6 0l-19.2 14.4zm-32 0h16v104a8 8 0 0 0 12.8 6.4l27.2-20.4 27.2 20.4a8 8 0 0 0 12.8-6.4v-104h208v352h-304z"/><path d="m384 160h-160a8 8 0 0 0 0 16h160a8 8 0 0 0 0-16z"/><path d="m384 192h-256a8 8 0 0 0 0 16h256a8 8 0 0 0 0-16z"/><path d="m128 240h64a8 8 0 0 0 0-16h-64a8 8 0 0 0 0 16z"/><path d="m304 240a8 8 0 0 0 0-16h-80a8 8 0 0 0 0 16z"/><path d="m384 224h-48a8 8 0 0 0 0 16h48a8 8 0 0 0 0-16z"/><path d="m384 320h-64a8 8 0 0 0 0 16h64a8 8 0 0 0 0-16z"/><path d="m208 336h80a8 8 0 0 0 0-16h-80a8 8 0 0 0 0 16z"/><path d="m128 336h48a8 8 0 0 0 0-16h-48a8 8 0 0 0 0 16z"/><path d="m128 272h128a8 8 0 0 0 0-16h-128a8 8 0 0 0 0 16z"/><path d="m368 352h-240a8 8 0 0 0 0 16h240a8 8 0 0 0 0-16z"/><path d="m384 256h-96a8 8 0 0 0 0 16h96a8 8 0 0 0 0-16z"/><path d="m128 304h56a8 8 0 0 0 0-16h-56a8 8 0 0 0 0 16z"/><path d="m184 384h-56a8 8 0 0 0 0 16h56a8 8 0 0 0 0-16z"/><path d="m384 288h-168a8 8 0 0 0 0 16h168a8 8 0 0 0 0-16z"/><path d="m256 384h-40a8 8 0 0 0 0 16h40a8 8 0 0 0 0-16z"/><path d="m224 112h64a8 8 0 0 0 0-16h-64a8 8 0 0 0 0 16z"/><path d="m384 128h-160a8 8 0 0 0 0 16h160a8 8 0 0 0 0-16z"/></svg>