<svg id="Layer_1" enable-background="new 0 0 512 512" height="512" viewBox="0 0 512 512" width="512" xmlns="http://www.w3.org/2000/svg"><g><path d="m226 411.996h60v90.003h-60z" fill="#aab1c7"/><ellipse cx="256" cy="214.989" fill="#ff7b79" rx="205" ry="205.008"/><ellipse cx="256" cy="214.989" fill="#fff" rx="160" ry="160.006"/><g><path d="m466.63 171.657c-2.83-13.811-7.04-27.381-12.53-40.362-5.39-12.741-12.06-25.03-19.82-36.521-7.69-11.38-16.52-22.091-26.25-31.822-9.73-9.73-20.44-18.56-31.82-26.251-11.5-7.76-23.78-14.43-36.52-19.821-12.98-5.489-26.56-9.71-40.36-12.53-28.33-5.8-58.33-5.8-86.66.001-13.81 2.82-27.38 7.041-40.36 12.53-12.74 5.391-25.03 12.061-36.52 19.821-11.38 7.691-22.09 16.521-31.82 26.251-9.73 9.731-18.56 20.441-26.25 31.822-7.76 11.49-14.43 23.78-19.82 36.521-5.49 12.981-9.7 26.551-12.53 40.362-2.9 14.161-4.37 28.741-4.37 43.332 0 14.59 1.47 29.171 4.37 43.332 2.83 13.81 7.04 27.381 12.53 40.361 5.39 12.741 12.06 25.031 19.82 36.522 7.69 11.38 16.52 22.091 26.25 31.822 9.73 9.73 20.44 18.56 31.82 26.251 11.49 7.76 23.78 14.43 36.52 19.82 12.98 5.49 29.88 10.338 43.69 13.168v75.734c0 5.523 4.477 10 10 10h60c5.523 0 10-4.478 10-10v-75.72c13.967-2.629 27.639-6.639 40.91-12.033 12.37-5.021 24.34-11.25 35.58-18.51 11.13-7.191 21.65-15.451 31.28-24.571 4-3.79 4.18-10.13.39-14.14-1.91-2.011-4.49-2.937-7.27-2.937-2.56 0-4.99.913-6.86 2.913h-.01c-36.36 34-83.96 53.169-134.02 53.179-52.08-.01-101.04-20.382-137.89-57.204-36.82-36.853-57.11-85.86-57.11-137.942s20.29-101.067 57.11-137.919c36.85-36.821 85.82-57.123 137.89-57.123s101.04 20.285 137.89 57.106c36.82 36.852 57.11 85.82 57.11 137.893 0 24.6-4.52 48.59-13.44 71.281-.97 2.489-.92 5.199.14 7.649 1.07 2.45 3.03 4.34 5.51 5.32 1.18.46 2.41.689 3.66.689 4.14 0 7.79-2.49 9.31-6.35 9.84-25.031 14.82-51.471 14.82-78.592 0-14.591-1.47-29.171-4.37-43.332zm-230.63 257.403c6.639.613 13.302.937 19.985.937l.015-.05v.05c7 0 13.393-.313 20-.92v62.923h-40z"/><circle cx="425.948" cy="329.663" r="10"/><path d="m256 44.982c-93.738 0-170 76.265-170 170.006s76.262 170.006 170 170.006 170-76.265 170-170.006-76.262-170.006-170-170.006zm0 320.012c-82.71 0-150-67.293-150-150.006s67.29-150.005 150-150.005 150 67.293 150 150.006-67.29 150.005-150 150.005z"/><path d="m236.963 208.069c-10.471-11.071-25.481-17.419-41.182-17.419-7.271 0-12.98.541-18.001 1.54l6.608-37.19h47.168c5.523 0 10-4.477 10-10 0-5.522-4.477-10-10-10h-55.548c-4.848 0-8.998 3.471-9.846 8.244l-11.004 61.938c-.655 3.687.815 7.424 3.792 9.695 2.977 2.27 6.985 2.681 10.366 1.073.096-.045 2.908-1.245 3.619-1.526 5.678-2.25 11.369-3.773 22.846-3.773 10.228 0 19.942 4.068 26.652 11.162 5.958 6.299 8.983 14.359 8.52 22.695-.932 16.744-16.054 30.13-34.426 30.476-17.902.301-33.219-11.598-35.638-27.762-.817-5.461-5.9-9.228-11.37-8.409-5.462.818-9.228 5.907-8.41 11.371 3.849 25.718 27.805 44.805 55.237 44.803 28.781-.541 53.065-22.229 54.575-49.367.773-13.882-4.184-27.217-13.958-37.551z"/><path d="m321 134.986c-27.57 0-50 21.936-50 48.899v62.207c0 26.963 22.43 48.899 50 48.899s50-21.936 50-48.899v-62.207c0-26.963-22.43-48.899-50-48.899zm30 111.106c0 15.935-13.458 28.899-30 28.899s-30-12.963-30-28.899v-62.207c0-15.935 13.458-28.899 30-28.899s30 12.963 30 28.899z"/></g></g></svg>