<svg id="Layer_3" enable-background="new 0 0 64 64" height="512" viewBox="0 0 64 64" width="512" xmlns="http://www.w3.org/2000/svg"><g><path d="m32 62h-12c-2.209 0-4-1.791-4-4v-40c0-2.209 1.791-4 4-4h12c2.209 0 4 1.791 4 4v40c0 2.209-1.791 4-4 4z" fill="#e2e7f6"/><path d="m22 10h8v4h-8z" fill="#3279ea"/><path d="m30 6h-8v-2c0-1.105.895-2 2-2h4c1.105 0 2 .895 2 2z" fill="#3279ea"/><path d="m24 6h4v4h-4z" fill="#e2e7f6"/><circle cx="36" cy="4" fill="#3279ea" r="2"/><path d="m16 22h20v32h-20z" fill="#3279ea"/><path d="m20 26h12v24h-12z" fill="#7aadf9"/><circle cx="44" cy="38" fill="#3279ea" r="4"/><g><path d="m32 25h-12c-.552 0-1 .447-1 1v24c0 .553.448 1 1 1h12c.552 0 1-.447 1-1v-24c0-.553-.448-1-1-1zm-1 24h-10v-22h10z"/><path d="m23 29h6v2h-6z"/><path d="m23 33h6v2h-6z"/><path d="m23 37h6v2h-6z"/><path d="m23 41h6v2h-6z"/><path d="m23 45h6v2h-6z"/><path d="m45 33.101v-26.101c0-2.206-1.794-4-4-4h-2.184c-.414-1.161-1.514-2-2.816-2s-2.402.839-2.816 2h-2.369c-.413-1.161-1.513-2-2.815-2h-4c-1.654 0-3 1.346-3 3v2c0 .553.448 1 1 1h1v2h-1c-.552 0-1 .447-1 1v3h-1c-2.757 0-5 2.243-5 5v40c0 2.757 2.243 5 5 5h12c2.757 0 5-2.243 5-5v-40c0-2.757-2.243-5-5-5h-1v-3c0-.553-.448-1-1-1h-1v-2h1c.552 0 1-.447 1-1v-1h2.184c.414 1.161 1.514 2 2.816 2s2.402-.839 2.816-2h2.184c1.103 0 2 .897 2 2v26.101c-2.279.465-4 2.484-4 4.899 0 2.757 2.243 5 5 5s5-2.243 5-5c0-2.414-1.721-4.434-4-4.899zm-28-10.101h18v30h-18zm15 38h-12c-1.654 0-3-1.346-3-3v-3h18v3c0 1.654-1.346 3-3 3zm3-43v3h-18v-3c0-1.654 1.346-3 3-3h12c1.654 0 3 1.346 3 3zm-12-5v-2h6v2zm4-4h-2v-2h2zm2-4h-6v-1c0-.552.449-1 1-1h4c.551 0 1 .448 1 1zm7 0c-.551 0-1-.448-1-1s.449-1 1-1 1 .448 1 1-.449 1-1 1zm8 36c-1.654 0-3-1.346-3-3s1.346-3 3-3c.462 0 .894.113 1.285.301l-1.992 1.992 1.414 1.414 1.992-1.992c.188.391.301.823.301 1.285 0 1.654-1.346 3-3 3z"/></g></g></svg>