<svg height="512pt" viewBox="-51 0 512 512" width="512pt" xmlns="http://www.w3.org/2000/svg"><path d="m205.328125 360.015625h88.867187l8.015626-43.421875h35.410156v194.902344h-264.585938v-194.902344h35.414063l8.011719 43.421875zm0 0" fill="#c8d2dc"/><path d="m315.910156 316.59375h21.710938v194.902344h-21.710938zm0 0" fill="#b9c3cd"/><path d="m57.710938 140.875h30.296874v45.445312h-30.296874zm0 0" fill="#da2f3c"/><path d="m88.007812 140.875h240.347657v45.445312h-240.347657zm0 0" fill="#ddf5ff"/><path d="m88.007812 174.199219h240.347657v12.121093h-240.347657zm0 0" fill="#c1e9f4"/><path d="m328.355469 140.875h74.730469v45.445312h-74.730469zm0 0" fill="#ffe046"/><path d="m388.945312 140.875v23.226562c0 5.578126-4.519531 10.101563-10.097656 10.101563h-50.492187v12.117187h74.730469v-45.445312zm0 0" fill="#eec707"/><path d="m164.398438 59.847656c0-12.269531-9.945313-22.214844-22.214844-22.214844-1.347656 0-2.660156.140626-3.941406.371094-6.300782-17.730468-23.21875-30.429687-43.105469-30.429687-25.261719 0-45.742188 20.480469-45.742188 45.742187-12.269531 0-22.214843 9.945313-22.214843 22.214844-10.828126 0-19.605469 8.777344-19.605469 19.605469 0 10.757812 8.671875 19.496093 19.410156 19.601562 4.25.039063 8.34375 1.613281 11.347656 4.621094l21.519531 21.515625 1.53125-16.859375c.351563-3.871094 3.65625-6.675781 7.542969-6.664063h.070313c11.003906 0 20.113281-8.003906 21.882812-18.5 1.402344.128907 2.820313.203126 4.257813.203126 8.757812 0 16.941406-2.464844 23.894531-6.738282 2.949219 1.777344 6.390625 2.816406 10.082031 2.816406 8.816407 0 16.269531-5.820312 18.738281-13.824218 9.519532-2.507813 16.546876-11.152344 16.546876-21.460938zm0 0" fill="#c8d2dc"/><path d="m142.183594 37.636719c-1.347656 0-2.660156.140625-3.941406.371093-6.296876-17.730468-23.214844-30.429687-43.101563-30.429687-.890625 0-1.769531.035156-2.648437.082031 9.519531 5.386719 16.917968 14.082032 20.628906 24.527344 1.28125-.230469 2.59375-.371094 3.941406-.371094 12.269531 0 22.214844 9.945313 22.214844 22.214844 0 10.308594-7.03125 18.949219-16.550782 21.460938-2.464843 8.003906-9.917968 13.824218-18.734374 13.824218-3.691407 0-7.132813-1.039062-10.082032-2.816406-6.953125 4.269531-15.132812 6.734375-23.894531 6.734375-1.433594 0-2.851563-.074219-4.253906-.203125-1.773438 10.496094-10.878907 18.5-21.882813 18.5-.023437 0-.046875 0-.070312 0-3.714844-.011719-6.894532 2.558594-7.472656 6.164062.703124.5 1.382812 1.042969 2.003906 1.664063l21.515625 21.515625 1.53125-16.859375c.351562-3.871094 3.660156-6.675781 7.542969-6.664063h.074218c11 0 20.105469-8.003906 21.878906-18.5 1.402344.128907 2.820313.203126 4.257813.203126 8.757813 0 16.9375-2.464844 23.890625-6.734376 2.949219 1.777344 6.390625 2.816407 10.085938 2.816407 8.8125 0 16.265624-5.820313 18.734374-13.824219 9.519532-2.511719 16.546876-11.152344 16.546876-21.460938 0-12.265624-9.945313-22.214843-22.214844-22.214843zm0 0" fill="#b9c3cd"/><path d="m183.113281 330.730469h44.433594v29.285156h-44.433594zm0 0" fill="#ddf5ff"/><path d="m215.429688 330.730469h12.117187v29.285156h-12.117187zm0 0" fill="#c1e9f4"/><path d="m183.113281 256h44.433594v74.730469h-44.433594zm0 0" fill="#ffe046"/><path d="m183.113281 316.59375h22.214844c5.578125 0 10.101563-4.523438 10.101563-10.101562v-50.492188h12.117187v74.730469h-44.433594zm0 0" fill="#eec707"/><path d="m227.546875 330.730469h44.433594v29.285156h-44.433594zm0 0" fill="#ddf5ff"/><path d="m259.863281 330.730469h12.117188v29.285156h-12.117188zm0 0" fill="#c1e9f4"/><path d="m227.546875 256h44.433594v74.730469h-44.433594zm0 0" fill="#ffe046"/><path d="m227.546875 316.59375h22.214844c5.578125 0 10.101562-4.523438 10.101562-10.101562v-50.492188h12.117188v74.730469h-44.433594zm0 0" fill="#eec707"/><path d="m271.980469 330.730469h44.433593v29.285156h-44.433593zm0 0" fill="#ddf5ff"/><path d="m304.296875 330.730469h12.117187v29.285156h-12.117187zm0 0" fill="#c1e9f4"/><path d="m271.980469 256h44.433593v74.730469h-44.433593zm0 0" fill="#ffe046"/><path d="m271.980469 316.59375h22.214843c5.578126 0 10.101563-4.523438 10.101563-10.101562v-50.492188h12.117187v74.730469h-44.433593zm0 0" fill="#eec707"/><path d="m94.242188 330.730469h44.4375v29.285156h-44.4375zm0 0" fill="#ddf5ff"/><path d="m126.558594 330.730469h12.121094v29.285156h-12.121094zm0 0" fill="#c1e9f4"/><path d="m94.242188 256h44.4375v74.730469h-44.4375zm0 0" fill="#ffe046"/><path d="m94.242188 316.59375h22.21875c5.578124 0 10.097656-4.523438 10.097656-10.101562v-50.492188h12.121094v74.730469h-44.4375zm0 0" fill="#eec707"/><path d="m138.679688 330.730469h44.433593v29.285156h-44.433593zm0 0" fill="#ddf5ff"/><path d="m170.992188 330.730469h12.121093v29.285156h-12.121093zm0 0" fill="#c1e9f4"/><path d="m138.679688 256h44.433593v74.730469h-44.433593zm0 0" fill="#ffe046"/><path d="m138.679688 316.59375h22.214843c5.578125 0 10.097657-4.523438 10.097657-10.101562v-50.492188h12.121093v74.730469h-44.433593zm0 0" fill="#eec707"/><path d="m205.328125 360.015625h88.867187l8.015626-43.421875h35.410156v155.515625l-132.292969-47.460937-132.292969 47.460937v-155.515625h35.414063l8.011719 43.421875zm0 0" fill="#da2f3c"/><path d="m315.910156 316.59375v147.726562c5.957032 2.136719 21.710938 7.789063 21.710938 7.789063v-155.515625zm0 0" fill="#c62430"/><path d="m403.085938 133.300781h-334.941407l.761719-8.375h.089844c12.277344 0 22.964844-7.394531 27.488281-18.3125 7.960937-.199219 15.742187-2.171875 22.796875-5.757812 3.128906 1.21875 6.464844 1.855469 9.832031 1.855469 10.621094 0 20.019531-6.03125 24.488281-15.363282 10.992188-4.558594 18.371094-15.351562 18.371094-27.496094 0-16.113281-12.859375-29.28125-28.851562-29.777343-8.824219-18.203125-27.4375-30.074219-47.984375-30.074219-27.128907 0-49.585938 20.367188-52.898438 46.609375-10.746093 2.664063-19.382812 11.417969-21.875 22.210937-11.699219 3.03125-20.363281 13.679688-20.363281 26.316407 0 14.839843 12.070312 27.027343 26.90625 27.175781 2.390625.023438 4.542969.875 6.070312 2.402344l17.160157 17.160156v44.445312c0 4.183594 3.390625 7.574219 7.574219 7.574219h192.652343c4.183594 0 7.574219-3.390625 7.574219-7.574219 0-4.183593-3.390625-7.574218-7.574219-7.574218h-154.78125v-30.296875h225.199219v30.296875h-35.167969c-4.183593 0-7.574219 3.390625-7.574219 7.574218 0 4.183594 3.390626 7.574219 7.574219 7.574219h117.472657c4.179687 0 7.570312-3.390625 7.570312-7.574219v-45.445312c0-4.183594-3.390625-7.574219-7.570312-7.574219zm-376.03125-26.136719c-6.566407-.0625-11.90625-5.460937-11.90625-12.027343 0-6.632813 5.394531-12.03125 12.03125-12.03125 4.179687 0 7.574218-3.390625 7.574218-7.574219 0-8.074219 6.566406-14.644531 14.640625-14.644531 3.921875 0 7.605469 1.53125 10.375 4.308593 2.949219 2.964844 7.746094 2.972657 10.710938.019532 2.960937-2.953125 2.96875-7.746094.015625-10.710938-3.660156-3.675781-8.113282-6.269531-12.972656-7.636718 3.074218-17.984376 18.765624-31.71875 37.613281-31.71875 13.566406 0 25.953125 7.230468 32.753906 18.574218-9.230469 5.066406-15.496094 14.878906-15.496094 26.125 0 4.183594 3.390625 7.574219 7.574219 7.574219 4.179688 0 7.570312-3.390625 7.570312-7.574219 0-7.089844 5.074219-13.019531 11.777344-14.355468 8.941406-1.28125 17.511719 4.886718 17.511719 14.355468 0 6.632813-4.484375 12.445313-10.90625 14.136719-2.53125.667969-4.539063 2.59375-5.308594 5.09375-1.5625 5.074219-6.183593 8.484375-11.5 8.484375-2.160156 0-4.296875-.597656-6.175781-1.730469-2.425781-1.460937-5.457031-1.445312-7.867188.035157-12.363281 7.585937-28.4375 7.421874-40.652343-.492188-3.507813-2.269531-8.199219-1.269531-10.472657 2.238281-2.273437 3.511719-1.273437 8.203125 2.238282 10.476563 4.375 2.832031 9.105468 4.984375 14.050781 6.421875-2.726563 3.265625-6.828125 5.285156-11.335937 5.265625-7.882813 0-14.355469 5.828125-15.058594 13.550781l-.070313.757813-10.082031-10.082032c-4.347656-4.347656-10.253906-6.777344-16.632812-6.839844-6.566407-.0625 6.378906.0625 0 0zm38.230468 41.285157h15.148438v30.296875h-15.148438zm330.226563 30.296875h-59.582031v-30.296875h59.582031zm0 0"/><path d="m337.621094 309.019531h-13.632813v-53.019531c0-4.183594-3.390625-7.574219-7.574219-7.574219h-222.171874c-4.179688 0-7.570313 3.390625-7.570313 7.574219v53.019531h-13.636719c-4.179687 0-7.570312 3.390625-7.570312 7.574219v59.074219c0 4.183593 3.390625 7.574219 7.570312 7.574219 4.183594 0 7.574219-3.390626 7.574219-7.574219v-51.503907h21.539063l6.863281 37.226563c.664062 3.59375 3.796875 6.199219 7.449219 6.199219h177.734374c3.65625 0 6.789063-2.609375 7.449219-6.199219l6.867188-37.226563h21.535156v51.503907c0 4.183593 3.390625 7.574219 7.574219 7.574219s7.574218-3.390626 7.574218-7.574219v-59.074219c0-4.183594-3.390624-7.574219-7.574218-7.574219zm-49.730469 43.421875h-8.335937v-14.136718h10.945312zm-23.484375-29.285156h-29.285156v-59.582031h29.285156zm-44.433594 0h-29.285156v-59.582031h29.285156zm-44.433594 0h-29.285156v-59.582031h29.285156zm-52.773437 29.285156-2.605469-14.136718h10.945313v14.136718zm-20.949219-43.421875v-45.445312h29.289063v59.582031h-13.742188l-1.460937-7.9375c-.664063-3.59375-3.796875-6.199219-7.449219-6.199219zm44.4375 29.285157h29.285156v14.136718h-29.285156zm44.433594 0h29.285156v14.136718h-29.285156zm44.433594 0h29.285156v14.136718h-29.285156zm67.082031-29.285157c-3.652344 0-6.785156 2.605469-7.445313 6.199219l-1.464843 7.9375h-13.738281v-59.582031h29.285156v45.445312zm0 0"/><path d="m337.621094 403.378906c-4.183594 0-7.574219 3.390625-7.574219 7.570313v50.398437l-122.160156-43.828125c-1.652344-.59375-3.460938-.59375-5.113281 0l-122.160157 43.828125v-50.398437c0-4.179688-3.390625-7.570313-7.574219-7.570313-4.183593 0-7.574218 3.390625-7.574218 7.570313v93.476562c0 4.183594 3.390625 7.574219 7.574218 7.574219 4.183594 0 7.574219-3.390625 7.574219-7.574219v-26.984375l124.714844-44.746094 124.71875 44.746094v26.984375c0 4.183594 3.390625 7.574219 7.574219 7.574219s7.574218-3.390625 7.574218-7.574219v-93.476562c0-4.179688-3.390624-7.570313-7.574218-7.570313zm0 0"/></svg>